<?xml version="1.0" encoding="utf-8"?>
<!-- Generator: Adobe Illustrator 21.1.0, SVG Export Plug-In . SVG Version: 6.00 Build 0)  -->
<svg version="1.1" id="Layer_6" xmlns="http://www.w3.org/2000/svg" xmlns:xlink="http://www.w3.org/1999/xlink" x="0px" y="0px"
	 viewBox="0 0 4787 2539.7" style="enable-background:new 0 0 4787 2539.7;" xml:space="preserve">
<style type="text/css">
	.st0{fill:#FCF7DF;}
	.st1{fill:#D6B89C;}
	.st2{fill:#D7B89C;}
	.st3{fill:#231F20;}
</style>
<path d="M4439.4,1727.7H1289.6v-152.2c0,0,0,0-0.1,0c4.3-2.5,8.6-5.2,12.9-8.3c26.7-19.2,38.2-37.1,39.4-57.1
	c0.7-12.6-6-26.2-10.4-32.3c3.1-4.5,6.7-8.7,10.8-13.5c1-1.1,8,1.7,9,0.5c5.4-6.5,11.3-14.3,17.4-25.3
	c12.1-21.8,14.8-37.3,15.1-51.4c0-0.4,0-0.8,0-1.2c2.4-1,4.2-2,5.4-2.9c10.2-6.3,15.6-16.1,15.9-29.2c0.2-9-1.9-18.5-4.2-28.6
	c-0.8-3.5-1.6-7-2.3-10.5c21.3-26.8,39.9-60.4,54.2-102.5c29.3-86,28.1-155,28.1-155c0.1-2.4,0.1-5.5,0-9.2
	c-3.2-81.9,8.8-207.6-8-257.8c-20.1-50-219.1-172.6-254.8-148.3l0,0c0,0-34.2-12.3-70.3-4.3c-159.3-65.3-351.2-22.5-474.5,141.7
	L523.3,452.9c-3.6-7.9-13.1-21.4-36.4-23.6c-35.1-3.3-91.8,22.6-112.2,51.3c-13.6,19.1-9.5,35.1-5.9,43l209.1,457.1
	c-0.7,2.5-1.4,5-2,7.6c-30.9,116.5-2.1,241.3,41,205.1c2.4-2,4.8-4.4,7.5-7c-95.5,110.7,52,297.2,52,366.9v174.4H503.8
	c-11,0-20,9-20,20v81h0c0.8,46.3,41,84,90,84c3.8,0,430.2,0,430.2,0l105.2,230c-15.1,0.2-30.2,0.5-45.3,0.9c-47,1.2-94,2.8-141,5.8
	c47,3.1,94,4.7,141,5.8c47,1.1,94,1.6,141,1.6c47,0,94-0.5,141-1.6c47-1.2,94-2.8,141-5.9c-47-3.1-94-4.7-141-5.9
	c-16.7-0.4-33.4-0.7-50.1-0.9l-6.9-15.7l-98-214.2h3176.5l0,0c0.7,0,1.3,0,1.9,0c49,0,89.1-37.7,90-84h0v-81
	C4459.4,1736.7,4450.4,1727.7,4439.4,1727.7z"/>
<path class="st0" d="M1233.6,1372.2c-37.3-25.6-76.5-43.8-104.5-75.4c-5.6,2.9-11.5,7.1-16.2,11.6c-6,5.8-9.7,11.7-10.4,16.4
	l-0.3,1.9l-1.4,1.2c-8.4,7.2-18.8,16.2-21.2,29.9c14.3,26,34.6,50.2,57.2,68.3c20,16,28.2,16.2,50,27.1
	c26.8,13.4,57.3,20.2,90.7,20.2c8.4,0,17-0.4,25.8-1.3c2.5-1.4,10.9-6.3,15.9-13.3c1.2-1.7,10.4-13.6,10.4-13.6s4.9-0.4,7.5-0.7
	c2.1-1.8,16-16.6,21.3-30.2c3.6-9.2,4.3-17.2,4.3-22.3c-8.4,2.5-24.4,6.4-44.5,6.4C1287.3,1398.3,1258.8,1389.5,1233.6,1372.2z"/>
<g>
	<g>
		<path class="st1" d="M368.2,841.6c0-0.5,0-1,0-1.5c0-1.3-1.1-2.6-2.5-2.5c-1.4,0.1-2.5,1.1-2.5,2.5c0,0.5,0,1,0,1.5
			c0,1.3,1.1,2.6,2.5,2.5C367,844.1,368.2,843,368.2,841.6L368.2,841.6z"/>
	</g>
</g>
<path class="st2" d="M1308.1,1485.8c-184.4,16.3-236.6-119.8-237.1-120.7c-51.8,45.7,32.2,80.1,32.2,80.1
	c-87.1-19.9-91.2-71.8-88.6-120.8c1.7-31.7,10.5-65.2,12.4-81.6c-16.4,6.5-38.6,3.5-62.2-0.2l24.7,49.8c17,34.3,7.8,74.8-20,98.6
	c21.6,68.3,225.2,186.4,321.1,158c24.1-7.1,32.6-27.4,33.5-39.9C1324.4,1502.1,1319.6,1491.4,1308.1,1485.8z"/>
<path class="st2" d="M804.5,1127.9l-304-664.6c-13.8-30.1-122.9,19.8-109.1,49.9L697,1181.4L804.5,1127.9z"/>
<path class="st2" d="M1202.4,2141.9c21.9,0,43.8,0.1,65.6,0.2c-0.6-1.6-1.2-3.2-1.9-4.7l-332-726l-107.5,53.5l309.7,677.3
	C1158.4,2142,1180.4,2141.9,1202.4,2141.9z"/>
<g>
	<g>
		<path class="st3" d="M654.2,3965.3c0,0.7,0,1.3,0,2c0,1.3,1.1,2.6,2.5,2.5c1.4-0.1,2.5-1.1,2.5-2.5c0-0.7,0-1.3,0-2
			c0-1.3-1.1-2.6-2.5-2.5C655.3,3962.9,654.2,3963.9,654.2,3965.3L654.2,3965.3z"/>
	</g>
</g>
<path class="st2" d="M1362,963.1c33.6-4.2,61.7,7.3,79.6,19.2c-0.1,0.3,14.7-41.1,10.2-71.5c-4.4-30.1-12.6-58.4-24.4-84.6
	c-108.1-65.2-145.9,133.2-279.8,247.2c-85.8,73-141.7,99.6-178,142.8c25.6,1.7,48.4-0.9,68.9-9.2c18.1-7.3,32.4-13,42.6-14.6
	c14.7-2.2,28.1,0.8,39.7,8.9l4.1,3.1c8.1,6.7,15.3,16.1,21.5,27.9c11.2,21.8,14.9,44.4,15,45.3l0.9,5.8c0,0-10.6-27.5-24.7-42.3
	c-0.3,10.6-3.2,20.5-7.6,30.1c21.1,25.4,66.3,56.2,113.6,89.5c29.4,20.7,48.2,24.2,68.2,24.2c38.5,0,70.2-17.5,70.2-17.5
	c8.4-4.9,4.1-17.6-0.2-36.4c-2.2-9.6-7.3-54.4,1.7-77.7c-31.5,7.5-7.5,55.5-49,63.2c-10.2,1.9-27.2-17.4-1.9-51.5
	c21-28.3,50.1-38.8,86.2-62.4l-17.2-75.9l6.1-1.1c1-0.2,26-5.5,38.7-43.3c5.7-17,7.3-42.6,3.3-57.2
	C1437.8,981.6,1362,963.1,1362,963.1z M1410.6,1109.3c-2.4,2.3-6.7,5-12.6,5c-2.6,0-5.5-0.5-8.8-1.8c-4.3,6.8-9.9,18.3-6.8,26
	c4.4,11.2,8.3,23,3.2,32.9c-3.5,6.7-10.4,11.3-21.3,14c-13.1,3.2-29.8,6.8-46.9,6.9c-2.1,0-4.2,0-6.3-0.1
	c-23.4-1-42.2-9.1-55.8-23.9c-8.6-9.4-18.4-28.8-20.8-50.8c-1.5-13.4-0.6-31.1,8.6-48.6c-21.1,3.4-35.1,39.5-35.1,39.5l0.4-5.9
	c0-0.4,0.7-10.1,7.6-21.7c6.2-10.4,18.9-24.7,44.4-33.4c39.1-13.4,79.9,16.6,109.6,38.5c7.5,5.5,14.5,10.7,20.3,14.2
	c7.8,4.7,11.1,1.8,12.3,0.6c9.2-8.3,10.3-36.5,4.2-49.3l-2.5-5.3C1404.3,1045.9,1435,1086.1,1410.6,1109.3z"/>
<g>
	<path d="M1658.4,980.1h528c16.6,0,30,13.4,30,30v68.5c0,16.6-13.4,30-30,30h-452.1v133.6h443c21.1,0,39.3,7.7,54.6,23.2
		c15.3,15.5,23,33.7,23,54.8v235.6c0,21.4-7.7,39.6-23,54.8c-15.3,15.2-33.5,22.8-54.6,22.8h-566.8c-16.6,0-30-13.4-30-30v-68.5
		c0-16.6,13.4-30,30-30H2101v-134h-442.5c-21.4,0-39.7-7.6-55-22.8c-15.3-15.2-23-33.4-23-54.8v-235.6c0-21.1,7.7-39.3,23-54.6
		C1618.7,987.7,1637.1,980.1,1658.4,980.1z"/>
	<path d="M2967.7,1010.1v68.5c0,16.6-13.4,30-30,30h-230v494.7c0,16.6-13.4,30-30,30h-93.8c-16.6,0-30-13.4-30-30v-494.7h-230
		c-16.6,0-30-13.4-30-30v-68.5c0-16.6,13.4-30,30-30h613.9C2954.3,980.1,2967.7,993.5,2967.7,1010.1z"/>
	<path d="M3067.6,980.1h87.3c15.5,0,30.2,7.2,39.7,19.5l148.1,192.9l150.2-193.1c9.5-12.2,24-19.3,39.5-19.3h87.6
		c24.9,0,38.9,28.5,23.8,48.2L3419.3,1321v282.3c0,16.6-13.4,30-30,30h-93.8c-16.6,0-30-13.4-30-30v-286.1l-221.7-288.9
		C3028.6,1008.6,3042.7,980.1,3067.6,980.1z"/>
	<path d="M3744.4,980.1h87.2c15.5,0,30.2,7.2,39.7,19.5l148.1,192.9L4170,999.3c9.5-12.2,24-19.3,39.4-19.3h87.6
		c24.9,0,38.9,28.5,23.8,48.2l-213.4,278.4l213.4,278.4c15.1,19.7,1.1,48.2-23.8,48.2h-87.6c-15.4,0-30-7.1-39.4-19.3l-150.6-193.2
		l-148.1,192.9c-9.5,12.3-24.1,19.5-39.7,19.5h-90.8c-24.9,0-39-28.6-23.7-48.4l215.4-278.3l-212-278.5
		C3705.5,1008.5,3719.6,980.1,3744.4,980.1z"/>
</g>
</svg>
